<svg width="24" height="16" viewBox="0 0 24 16" fill="none" xmlns="http://www.w3.org/2000/svg">
<path d="M7.36385 0.278875L0.292789 7.30458C0.105316 7.49088 0 7.74353 0 8.00695C0 8.27038 0.105316 8.52303 0.292789 8.70933L7.35235 15.7211C7.54096 15.9021 7.79356 16.0022 8.05576 16C8.31796 15.9977 8.56877 15.8932 8.75418 15.709C8.93959 15.5248 9.04476 15.2757 9.04704 15.0152C9.04932 14.7547 8.94852 14.5037 8.76637 14.3164L3.40832 8.99345H23C23.2652 8.99345 23.5196 8.88879 23.7071 8.70248C23.8946 8.51617 24 8.26348 24 8C24 7.73652 23.8946 7.48383 23.7071 7.29752C23.5196 7.11121 23.2652 7.00655 23 7.00655H3.41982L8.77786 1.68362C8.96002 1.49625 9.06082 1.2453 9.05854 0.984822C9.05626 0.724341 8.95109 0.475171 8.76568 0.290976C8.58027 0.106782 8.32946 0.00230106 8.06726 3.75551e-05C7.80506 -0.00222595 7.55246 0.0979088 7.36385 0.278875Z" fill="#FF2875"/>
</svg>
