<svg width="90" height="89" viewBox="0 0 90 89" fill="none" xmlns="http://www.w3.org/2000/svg">
<path d="M44.8514 0C20.1089 0 0 19.9098 0 44.4073C0 68.9049 20.1089 88.8146 44.8514 88.8146C69.5939 88.8146 89.7028 68.9049 89.7028 44.4073C89.7028 19.9073 69.5939 0 44.8514 0V0ZM44.8514 1.72195C68.611 1.72195 87.9636 20.8829 87.9636 44.4073C87.9636 67.9317 68.611 87.0927 44.8514 87.0927C21.0918 87.0927 1.73917 67.9317 1.73917 44.4073C1.73917 20.8829 21.0918 1.72195 44.8514 1.72195V1.72195ZM58.6046 34C58.3879 34 58.1711 34.078 57.9912 34.2561L39.2225 52.7439L31.7312 45.2829C31.374 44.9293 30.8469 44.9342 30.4921 45.2781C30.1596 45.6024 30.1571 46.1439 30.4971 46.4878L38.5894 54.5561C38.7741 54.7366 38.9688 54.8073 39.2028 54.8073C39.4122 54.8073 39.6191 54.7342 39.8063 54.5512L59.1959 35.4659C59.5555 35.1098 59.5481 34.6 59.2082 34.2488C59.0283 34.0756 58.819 33.9976 58.6046 33.9976V34Z" fill="#FF2875"/>
</svg>
