<svg width="23" height="18" viewBox="0 0 23 18" fill="none" xmlns="http://www.w3.org/2000/svg">
<path fill-rule="evenodd" clip-rule="evenodd" d="M23 7.72258V2.58387C23 1.16129 21.8471 0 20.4348 0H15.3333C13.9211 0 12.7682 1.16129 12.7682 2.58387V7.72258C12.7682 13.4129 17.3509 18 22.9712 18V14.371C20.3484 14.1968 18.1003 12.571 17.0338 10.2774H20.4348C21.8471 10.2774 23 9.14516 23 7.72258ZM7.66667 0H2.56516C1.15288 0 0 1.16129 0 2.58387V7.72258C0 13.4129 4.58271 18 10.203 18V14.371C7.5802 14.1968 5.33208 12.571 4.26566 10.2774H7.66667C9.07895 10.2774 10.2318 9.11613 10.2318 7.69355V2.55484C10.2318 1.16129 9.07895 0 7.66667 0Z" fill="#FF2875"/>
</svg>
