<svg width="20" height="25" viewBox="0 0 20 25" fill="none" xmlns="http://www.w3.org/2000/svg">
<path d="M19 8.78195C18.9979 8.62991 18.9364 8.48487 18.8291 8.37845L11.6804 1.17293C11.5752 1.06432 11.4319 1.00217 11.2816 1H4.13291C3.30201 1 2.50514 1.33403 1.91761 1.9286C1.33007 2.52317 1 3.32958 1 4.17043V20.8296C1 21.6704 1.33007 22.4768 1.91761 23.0714C2.50514 23.666 3.30201 24 4.13291 24H15.8671C16.698 24 17.4949 23.666 18.0824 23.0714C18.6699 22.4768 19 21.6704 19 20.8296V8.78195ZM11.9082 3.01754L17.0063 8.17669H14.1867C13.5824 8.17669 13.0029 7.93376 12.5756 7.50135C12.1483 7.06893 11.9082 6.48245 11.9082 5.87093V3.01754ZM17.8608 20.8296C17.8608 21.3647 17.6507 21.8778 17.2768 22.2562C16.9029 22.6346 16.3958 22.8471 15.8671 22.8471H4.13291C3.60416 22.8471 3.09706 22.6346 2.72317 22.2562C2.34929 21.8778 2.13924 21.3647 2.13924 20.8296V4.17043C2.13924 3.63534 2.34929 3.12217 2.72317 2.74381C3.09706 2.36544 3.60416 2.15288 4.13291 2.15288H10.769V5.87093C10.769 6.78822 11.1291 7.66794 11.77 8.31656C12.411 8.96518 13.2803 9.32957 14.1867 9.32957H17.8608V20.8296Z" fill="#FF2875" stroke="#FF2875" stroke-width="1.7"/>
</svg>
