<svg width="19" height="18" viewBox="0 0 19 18" fill="none" xmlns="http://www.w3.org/2000/svg">
<path d="M1.43973 2.59351e-05C0.649762 0.0742117 0.0153643 0.70304 0 1.46654C0.172582 6.64139 1.81089 10.808 4.78795 13.6607C7.76501 16.5134 12.0386 18.0091 17.3438 18C18.2143 18.0039 18.8142 17.2683 18.8304 16.5268C18.8392 15.3041 18.8486 14.0785 18.8572 12.8572C18.8572 12.004 18.0839 11.4503 17.3705 11.4442C16.2717 11.4485 14.7397 11.0491 13.5 10.7411C13.2884 10.69 13.0523 10.7555 12.8973 10.9085L10.8549 12.8906C8.39448 11.4131 7.26751 10.3245 5.75224 7.94201L7.78126 5.97995C7.94548 5.82129 8.01471 5.57099 7.95536 5.35049C7.62126 4.09982 7.07053 2.47028 7.15849 1.32593C7.07143 0.432549 6.22373 -0.0047567 5.55134 3.90141e-05C4.12015 1.75855e-05 2.66495 5.37923e-05 1.43973 2.59351e-05H1.43973ZM1.44642 1.28574C2.82295 1.28574 4.20352 1.28574 5.57812 1.28574C5.78572 1.28968 5.78572 1.28968 5.88615 1.47994C5.84799 2.85927 6.3007 4.25273 6.60937 5.32369L4.4799 7.39958C4.27246 7.60104 4.22849 7.94983 4.37946 8.19647C6.21111 11.1655 7.56946 12.483 10.6205 14.2634C10.8605 14.4029 11.1911 14.3627 11.3906 14.1697L13.5402 12.0737C14.7061 12.3682 16.1049 12.735 17.3772 12.7299C17.4695 12.7473 17.5603 12.8779 17.5714 12.8906L17.5446 16.5201C17.4999 16.6247 17.5714 16.7182 17.3036 16.7143C12.2598 16.7143 8.36774 15.3068 5.67857 12.7299C2.98207 10.1461 1.4501 6.34893 1.2857 1.41967C1.28572 1.28969 1.28572 1.28969 1.44642 1.28574Z" fill="white"/>
</svg>
