<svg width="27" height="26" viewBox="0 0 27 26" fill="none" xmlns="http://www.w3.org/2000/svg">
<path d="M20.5433 24.984C20.2633 24.984 19.9653 24.902 19.6563 24.74L13.5463 21.527L7.43632 24.74C6.71932 25.117 6.01832 25.037 5.62332 24.57C5.43132 24.342 5.22732 23.922 5.34732 23.222L6.51432 16.417L1.57132 11.597C1.08332 11.122 0.895321 10.566 1.05632 10.074C1.21632 9.58 1.69532 9.24 2.36832 9.144L9.20132 8.15L12.2573 1.959C12.5583 1.35 13.0283 1 13.5473 1C14.0663 1 14.5363 1.35 14.8373 1.959L17.8933 8.15L24.7263 9.144C25.3993 9.24 25.8773 9.58 26.0383 10.074C26.1993 10.566 26.0123 11.123 25.5233 11.597L20.5803 16.417L21.7473 23.222C21.8673 23.921 21.6633 24.341 21.4713 24.568C21.2433 24.838 20.9143 24.984 20.5433 24.984ZM2.21932 10.472C2.23832 10.472 2.28332 10.576 2.42832 10.718L7.60432 15.763C7.74932 15.904 7.81532 16.107 7.78132 16.306L6.55932 23.429C6.52232 23.646 6.55332 23.757 6.56732 23.779C6.58532 23.754 6.68732 23.744 6.86432 23.652L13.2603 20.289C13.4403 20.193 13.6533 20.193 13.8323 20.289L20.2283 23.652C20.4763 23.781 20.5623 23.754 20.5623 23.752C20.5463 23.742 20.5703 23.648 20.5333 23.43L19.3113 16.307C19.2773 16.108 19.3433 15.905 19.4883 15.764L24.6633 10.719C24.8203 10.565 24.8613 10.455 24.8633 10.43C24.8613 10.459 24.7613 10.391 24.5473 10.362L17.3953 9.321C17.1953 9.294 17.0223 9.167 16.9323 8.985L13.7343 2.505C13.6363 2.306 13.5463 2.234 13.5233 2.224C13.5463 2.234 13.4563 2.306 13.3593 2.503L10.1613 8.983C10.0713 9.165 9.89832 9.292 9.69832 9.319L2.54632 10.36C2.32832 10.391 2.23232 10.454 2.21532 10.473C2.21532 10.474 2.21732 10.472 2.21932 10.472Z" fill="#FF2875" stroke="#FF2875" stroke-width="1.7"/>
</svg>
