<svg width="23" height="23" viewBox="0 0 23 23" fill="none" xmlns="http://www.w3.org/2000/svg">
<path d="M1.65625 22C1.56983 22.0006 1.4842 21.9835 1.40469 21.9497C1.28491 21.9 1.18255 21.8159 1.11052 21.708C1.03849 21.6002 1.00004 21.4734 1 21.3437V3.84375C1 3.08954 1.29961 2.36622 1.83292 1.83291C2.36622 1.29961 3.08954 1 3.84375 1H19.1562C19.9105 1 20.6338 1.29961 21.1671 1.83291C21.7004 2.36622 22 3.08954 22 3.84375V14.7812C22 15.5354 21.7004 16.2588 21.1671 16.7921C20.6338 17.3254 19.9105 17.625 19.1562 17.625H6.3025L2.12 21.8075C1.99705 21.9306 1.83024 21.9998 1.65625 22ZM3.84375 2.3125C3.43764 2.3125 3.04816 2.47383 2.76099 2.76099C2.47383 3.04816 2.3125 3.43764 2.3125 3.84375V19.76L5.5675 16.505C5.69045 16.3819 5.85726 16.3126 6.03125 16.3125H19.1562C19.5624 16.3125 19.9518 16.1512 20.239 15.864C20.5262 15.5768 20.6875 15.1874 20.6875 14.7812V3.84375C20.6875 3.43764 20.5262 3.04816 20.239 2.76099C19.9518 2.47383 19.5624 2.3125 19.1562 2.3125H3.84375Z" fill="#FF2875" stroke="#FF2875" stroke-width="1.5"/>
</svg>
